<?xml version="1.0" standalone="no"?>
<!DOCTYPE svg PUBLIC "-//W3C//DTD SVG 20010904//EN"
 "http://www.w3.org/TR/2001/REC-SVG-20010904/DTD/svg10.dtd">
<svg version="1.0" xmlns="http://www.w3.org/2000/svg"
 width="848.000000pt" height="848.000000pt" viewBox="0 0 848.000000 848.000000"
 preserveAspectRatio="xMidYMid meet">
<metadata>
Created by potrace 1.14, written by Peter Selinger 2001-2017
</metadata>
<g transform="translate(0.000000,848.000000) scale(0.100000,-0.100000)"
fill="#000000" stroke="none">
<path d="M3180 8199 c-36 -3 -103 -10 -150 -13 -47 -4 -94 -9 -105 -11 -94
-21 -376 -58 -460 -61 -64 -2 -200 -12 -250 -18 -52 -7 -137 -16 -235 -26 -52
-5 -126 -14 -165 -19 -61 -8 -155 -16 -455 -37 -41 -3 -106 -12 -144 -21 -37
-8 -75 -16 -84 -17 -8 -2 -17 -11 -18 -22 -1 -10 -7 -46 -12 -79 -5 -33 -7
-73 -5 -90 6 -37 58 -141 76 -152 8 -4 22 -20 32 -35 9 -16 25 -28 35 -28 10
0 22 -9 25 -20 3 -11 30 -58 59 -105 30 -46 57 -100 60 -119 4 -20 12 -41 19
-48 7 -8 26 -40 43 -73 29 -55 32 -70 39 -193 4 -73 11 -147 15 -163 11 -36
10 -31 10 -79 0 -25 5 -40 13 -40 25 -1 86 -65 90 -96 5 -35 17 -60 57 -119
27 -41 123 -260 136 -309 3 -14 7 -74 8 -133 3 -114 12 -146 121 -403 15 -36
33 -78 40 -95 16 -38 65 -193 65 -206 0 -5 17 -46 39 -92 21 -45 48 -111 60
-147 23 -65 46 -103 107 -172 18 -20 39 -58 47 -85 8 -26 28 -77 46 -113 22
-48 29 -75 26 -100 -12 -87 -8 -118 29 -194 108 -227 112 -237 120 -291 5 -32
68 -221 91 -270 35 -75 74 -173 80 -205 4 -19 20 -73 35 -120 15 -47 30 -107
33 -135 8 -66 29 -145 64 -230 16 -38 35 -90 42 -115 7 -25 23 -65 36 -90 106
-205 135 -267 139 -294 3 -17 8 -103 11 -191 3 -88 8 -176 10 -195 2 -19 6
-59 9 -89 3 -29 10 -59 14 -65 5 -6 12 -26 16 -45 10 -56 103 -234 140 -271
94 -91 140 -167 191 -310 18 -51 40 -151 36 -167 -1 -8 32 -110 39 -118 23
-29 50 -140 50 -207 0 -45 6 -84 15 -102 8 -15 18 -58 21 -95 9 -105 61 -299
97 -363 18 -32 55 -89 82 -127 45 -62 56 -70 105 -86 30 -10 58 -22 62 -28 4
-6 9 -9 11 -7 13 16 78 133 97 175 65 144 104 214 140 254 65 70 105 122 138
181 17 30 59 82 93 115 65 64 131 156 135 190 5 46 38 155 69 230 46 112 81
170 123 207 85 77 143 136 140 145 -2 5 19 47 47 93 27 47 59 108 70 135 12
28 45 90 73 138 28 49 61 121 73 160 12 40 35 102 50 138 16 36 29 69 29 73 0
4 24 44 54 89 29 45 59 93 66 107 7 14 34 46 60 72 27 26 60 69 76 95 15 27
44 71 64 98 36 48 255 480 255 500 -1 25 37 121 68 173 19 31 44 86 57 122 13
36 53 108 89 160 36 52 85 139 108 193 24 54 52 111 63 127 11 15 20 31 20 34
0 2 16 33 36 68 37 64 75 108 93 108 19 0 72 60 91 101 15 35 18 68 18 204 0
151 2 168 27 246 16 46 31 89 35 94 4 6 15 32 24 58 10 27 36 78 58 114 36 60
39 71 43 154 3 50 7 95 11 100 3 5 7 32 10 60 8 91 51 193 105 252 13 14 52
130 54 159 0 3 3 10 8 14 4 4 7 15 7 24 0 18 122 340 172 455 34 76 66 160
105 274 14 41 50 110 80 153 57 83 97 164 128 258 10 30 35 87 55 127 46 88
70 159 65 195 -2 15 -27 55 -57 88 -41 47 -70 69 -128 96 -41 20 -82 39 -91
44 -8 4 -69 22 -135 40 -151 40 -417 129 -559 187 -132 54 -274 97 -520 157
-38 9 -113 27 -165 40 -83 21 -177 40 -260 52 -31 5 -193 13 -425 20 -264 9
-1829 12 -1905 3z"/>
</g>
</svg>
